<?xml version="1.0" encoding="iso-8859-1"?>
<!-- Generator: Adobe Illustrator 18.0.0, SVG Export Plug-In . SVG Version: 6.00 Build 0)  -->
<!DOCTYPE svg PUBLIC "-//W3C//DTD SVG 1.1//EN" "http://www.w3.org/Graphics/SVG/1.1/DTD/svg11.dtd">
<svg version="1.1" xmlns="http://www.w3.org/2000/svg" xmlns:xlink="http://www.w3.org/1999/xlink" x="0px" y="0px"
	 viewBox="0 0 48 48" style="enable-background:new 0 0 48 48;" xml:space="preserve">
<g id="Layer_336">
	<g>
		<path style="fill:#F63D27;" d="M47.221,0H24.223C10.969,0,0,11.236,0,24.49v23C0,48.042,0.67,48,1.223,48h23
			C37.477,48,48,37.746,48,24.49v-23C48,0.939,47.774,0,47.221,0z"/>
		<g>
			<path style="fill:#FFFFFF;" d="M31.956,29.194h1.289c0.346,0,0.625-0.28,0.625-0.626v-4.532h4.523
				c0.344,0,0.625-0.282,0.625-0.628v-1.29c0-0.346-0.281-0.628-0.625-0.628H33.87v-4.532c0-0.344-0.279-0.626-0.625-0.626h-1.289
				c-0.346,0-0.627,0.282-0.627,0.626v4.532h-4.523c-0.344,0-0.625,0.282-0.625,0.628v1.29c0,0.346,0.281,0.628,0.625,0.628h4.523
				v4.532C31.329,28.915,31.61,29.194,31.956,29.194z"/>
			<path style="fill:#FFFFFF;" d="M14.137,37.088c1.144,0.292,2.375,0.44,3.652,0.44c1.148,0,2.242-0.151,3.254-0.444
				c3.154-0.916,5.193-3.242,5.193-5.929c0-2.577-0.826-4.119-3.045-5.692c-0.951-0.675-1.817-1.663-1.832-1.969
				c0-0.554,0.049-0.818,1.289-1.787c1.603-1.256,2.486-2.91,2.486-4.657c0-1.583-0.482-2.99-1.307-3.978h0.639
				c0.133,0,0.262-0.041,0.367-0.117l1.779-1.291c0.221-0.159,0.314-0.442,0.229-0.701c-0.084-0.258-0.324-0.434-0.596-0.434H18.29
				c-0.871,0-1.756,0.153-2.623,0.452c-2.9,1.002-4.928,3.477-4.928,6.021c0,3.599,2.783,6.328,6.506,6.414
				c-0.072,0.286-0.109,0.567-0.109,0.843c0,0.554,0.141,1.08,0.43,1.587c-0.035,0.002-0.066,0.002-0.104,0.002
				c-3.547,0-6.75,1.744-7.965,4.34c-0.318,0.673-0.478,1.356-0.478,2.029c0,0.656,0.168,1.286,0.496,1.879
				C10.28,35.466,11.921,36.529,14.137,37.088z M14.846,16.904c-0.172-1.319,0.103-2.503,0.76-3.252
				c0.424-0.485,0.978-0.74,1.6-0.74l0.072,0.002c1.758,0.051,3.439,2.014,3.75,4.375c0.174,1.323-0.119,2.565-0.783,3.325
				c-0.424,0.485-0.971,0.74-1.619,0.74c0,0,0,0-0.002,0h-0.027C16.874,21.303,15.155,19.262,14.846,16.904z M18.227,27.842
				l0.072,0.002c0.59,0.006,1.164,0.094,1.707,0.26c0.186,0.127,0.365,0.25,0.539,0.368c1.254,0.857,2.082,1.423,2.314,2.331
				c0.053,0.227,0.08,0.456,0.08,0.677c0,2.334-1.738,3.518-5.166,3.518c-2.6,0-4.633-1.597-4.633-3.636
				C13.141,29.488,15.518,27.842,18.227,27.842z"/>
		</g>
	</g>
</g>
<g id="Layer_1">
</g>
</svg>
