<?xml version="1.0" encoding="iso-8859-1"?>
<!-- Generator: Adobe Illustrator 18.0.0, SVG Export Plug-In . SVG Version: 6.00 Build 0)  -->
<!DOCTYPE svg PUBLIC "-//W3C//DTD SVG 1.1//EN" "http://www.w3.org/Graphics/SVG/1.1/DTD/svg11.dtd">
<svg version="1.1" xmlns="http://www.w3.org/2000/svg" xmlns:xlink="http://www.w3.org/1999/xlink" x="0px" y="0px"
	 viewBox="0 0 48 48" style="enable-background:new 0 0 48 48;" xml:space="preserve">
<g id="Layer_347">
	<g>
		<path style="fill:#0173B2;" d="M46.522,0H23.524C10.27,0,0,10.625,0,23.879v23C0,47.431-0.029,48,0.524,48h23
			C36.777,48,48,37.134,48,23.879v-23C48,0.326,47.074,0,46.522,0z"/>
		<g>
			<rect x="9.024" y="19.035" style="fill:#FFFFFF;" width="7" height="20"/>
			<circle style="fill:#FFFFFF;" cx="12.524" cy="12.535" r="3.5"/>
			<path style="fill:#FFFFFF;" d="M39.024,28.044c0-5.397-1.164-9.009-7.455-9.009c-3.023,0-5.053,1.123-5.883,2.699H25.6v-2.699
				h-5.576v20h5.828v-9.913c0-2.614,0.494-5.145,3.728-5.145c3.186,0,3.443,2.989,3.443,5.314v9.745h6V28.044z"/>
		</g>
	</g>
</g>
<g id="Layer_1">
</g>
</svg>
